<?xml version="1.0" standalone="no"?>
<!DOCTYPE svg PUBLIC "-//W3C//DTD SVG 20010904//EN"
 "http://www.w3.org/TR/2001/REC-SVG-20010904/DTD/svg10.dtd">
<svg version="1.0" xmlns="http://www.w3.org/2000/svg"
 width="700.000000pt" height="700.000000pt" viewBox="0 0 700.000000 700.000000"
 preserveAspectRatio="xMidYMid meet">
<metadata>
Created by potrace 1.14, written by Peter Selinger 2001-2017
</metadata>
<g transform="translate(0.000000,700.000000) scale(0.100000,-0.100000)"
fill="#000000" stroke="none">
<path d="M0 3730 l0 -2820 1338 0 1337 0 45 -60 c58 -80 165 -181 256 -240
257 -168 595 -202 879 -90 167 66 312 177 427 328 l40 52 1339 0 1339 0 0
2825 0 2825 -1557 0 -1558 -1 -195 -98 -194 -99 -198 99 -198 99 -1550 0
-1550 0 0 -2820z m3210 1895 l290 -145 290 145 290 145 390 0 390 0 0 -390 0
-390 -340 0 -340 0 0 -195 0 -195 340 0 340 0 2 -260 3 -259 228 94 c125 52
232 95 237 95 6 0 108 -41 228 -91 119 -50 223 -93 230 -96 9 -4 12 168 12
841 l0 846 210 0 210 0 0 -2040 0 -2040 -2720 0 -2720 0 0 2040 0 2040 1070 0
1070 0 290 -145z"/>
<path d="M4180 3725 l0 -195 778 2 777 3 3 193 2 192 -780 0 -780 0 0 -195z"/>
<path d="M4180 2655 l0 -195 778 2 777 3 3 193 2 192 -780 0 -780 0 0 -195z"/>
</g>
</svg>
